<svg xmlns="http://www.w3.org/2000/svg" width="19.969" height="16.5" viewBox="0 0 19.969 16.5">
  <path class="cls-1" fill="#2376cf" d="M393.026,5699.26c7.531,0,11.65-6.36,11.65-11.87,0-.18,0-0.36-0.012-0.54a8.37,8.37,0,0,0,2.043-2.16,8.047,8.047,0,0,1-2.352.66,4.163,4.163,0,0,0,1.8-2.31,7.929,7.929,0,0,1-2.6,1.01,4.045,4.045,0,0,0-5.793-.18,4.232,4.232,0,0,0-1.185,3.99,11.549,11.549,0,0,1-8.439-4.36,4.221,4.221,0,0,0,1.268,5.57,4.052,4.052,0,0,1-1.859-.52v0.05a4.15,4.15,0,0,0,3.286,4.09,3.987,3.987,0,0,1-1.849.07,4.119,4.119,0,0,0,3.825,2.9,8.137,8.137,0,0,1-5.085,1.79,7.938,7.938,0,0,1-.975-0.06,11.5,11.5,0,0,0,6.277,1.87" transform="translate(-386.75 -5682.75)"/>
</svg>
